<svg width="18" height="18" viewBox="0 0 18 18" fill="none" xmlns="http://www.w3.org/2000/svg">
<path fill-rule="evenodd" clip-rule="evenodd" d="M0.220572 16.1833C-0.0732967 16.4772 -0.0732968 16.9536 0.220572 17.2475L0.752669 17.7796C1.04654 18.0735 1.52299 18.0735 1.81686 17.7796L9.00008 10.5964L16.1833 17.7796C16.4772 18.0735 16.9536 18.0735 17.2475 17.7796L17.7796 17.2475C18.0735 16.9536 18.0735 16.4772 17.7796 16.1833L10.5964 9.00008L17.7798 1.81669C18.0736 1.52282 18.0736 1.04637 17.7798 0.752498L17.2477 0.220402C16.9538 -0.0734672 16.4773 -0.0734672 16.1835 0.220402L9.00008 7.4038L1.81669 0.220406C1.52282 -0.0734629 1.04637 -0.073463 0.752498 0.220406L0.220402 0.752503C-0.0734672 1.04637 -0.0734672 1.52283 0.220402 1.8167L7.40379 9.00008L0.220572 16.1833Z" fill="black"/>
</svg>
